<mxfile host="app.diagrams.net" agent="Mozilla/5.0 (Windows NT 10.0; Win64; x64) AppleWebKit/537.36 (KHTML, like Gecko) Chrome/129.0.0.0 Safari/537.36" version="24.8.0">
  <diagram name="第 1 页" id="6atQDb6ML-iiFZs-KxkJ">
    <mxGraphModel dx="2079" dy="633" grid="1" gridSize="10" guides="1" tooltips="1" connect="1" arrows="1" fold="1" page="1" pageScale="1" pageWidth="827" pageHeight="1169" math="0" shadow="0">
      <root>
        <mxCell id="0" />
        <mxCell id="1" parent="0" />
        <mxCell id="ibVxWfqwhjhwBaZOz1QT-31" style="edgeStyle=orthogonalEdgeStyle;rounded=0;orthogonalLoop=1;jettySize=auto;html=1;" parent="1" source="ibVxWfqwhjhwBaZOz1QT-1" target="ibVxWfqwhjhwBaZOz1QT-4" edge="1">
          <mxGeometry relative="1" as="geometry" />
        </mxCell>
        <mxCell id="ibVxWfqwhjhwBaZOz1QT-1" value="devm_drm_dev_alloc()" style="text;html=1;align=center;verticalAlign=middle;resizable=0;points=[];autosize=1;strokeColor=none;fillColor=none;" parent="1" vertex="1">
          <mxGeometry x="320" y="65" width="150" height="30" as="geometry" />
        </mxCell>
        <mxCell id="ibVxWfqwhjhwBaZOz1QT-3" value="drm_dev_register()" style="text;html=1;align=center;verticalAlign=middle;resizable=0;points=[];autosize=1;strokeColor=none;fillColor=none;" parent="1" vertex="1">
          <mxGeometry x="335" y="710" width="120" height="30" as="geometry" />
        </mxCell>
        <mxCell id="ibVxWfqwhjhwBaZOz1QT-83" style="edgeStyle=orthogonalEdgeStyle;rounded=0;orthogonalLoop=1;jettySize=auto;html=1;entryX=0.5;entryY=0;entryDx=0;entryDy=0;" parent="1" source="ibVxWfqwhjhwBaZOz1QT-4" target="ibVxWfqwhjhwBaZOz1QT-19" edge="1">
          <mxGeometry relative="1" as="geometry" />
        </mxCell>
        <mxCell id="ibVxWfqwhjhwBaZOz1QT-86" value="" style="edgeStyle=orthogonalEdgeStyle;rounded=0;orthogonalLoop=1;jettySize=auto;html=1;" parent="1" source="ibVxWfqwhjhwBaZOz1QT-4" target="ibVxWfqwhjhwBaZOz1QT-82" edge="1">
          <mxGeometry relative="1" as="geometry" />
        </mxCell>
        <mxCell id="ibVxWfqwhjhwBaZOz1QT-4" value="drmm_mode_config_init()" style="text;html=1;align=center;verticalAlign=middle;resizable=0;points=[];autosize=1;strokeColor=none;fillColor=none;" parent="1" vertex="1">
          <mxGeometry x="315" y="125" width="160" height="30" as="geometry" />
        </mxCell>
        <mxCell id="ibVxWfqwhjhwBaZOz1QT-6" value="drm_universal_plane_init()" style="text;whiteSpace=wrap;html=1;" parent="1" vertex="1">
          <mxGeometry x="490" y="260" width="160" height="30" as="geometry" />
        </mxCell>
        <mxCell id="ibVxWfqwhjhwBaZOz1QT-73" style="edgeStyle=orthogonalEdgeStyle;rounded=0;orthogonalLoop=1;jettySize=auto;html=1;exitX=0.5;exitY=1;exitDx=0;exitDy=0;entryX=0.5;entryY=0;entryDx=0;entryDy=0;" parent="1" source="ibVxWfqwhjhwBaZOz1QT-10" target="ibVxWfqwhjhwBaZOz1QT-29" edge="1">
          <mxGeometry relative="1" as="geometry" />
        </mxCell>
        <mxCell id="ibVxWfqwhjhwBaZOz1QT-10" value="drm_crtc_helper_add()" style="text;whiteSpace=wrap;html=1;" parent="1" vertex="1">
          <mxGeometry x="330" y="360" width="130" height="30" as="geometry" />
        </mxCell>
        <mxCell id="ibVxWfqwhjhwBaZOz1QT-11" value="drm_crtc_init_with_planes()" style="text;whiteSpace=wrap;html=1;" parent="1" vertex="1">
          <mxGeometry x="490" y="360" width="160" height="30" as="geometry" />
        </mxCell>
        <mxCell id="ibVxWfqwhjhwBaZOz1QT-27" style="edgeStyle=orthogonalEdgeStyle;rounded=0;orthogonalLoop=1;jettySize=auto;html=1;entryX=0;entryY=0.5;entryDx=0;entryDy=0;" parent="1" target="ibVxWfqwhjhwBaZOz1QT-19" edge="1">
          <mxGeometry relative="1" as="geometry">
            <mxPoint x="210" y="275" as="sourcePoint" />
          </mxGeometry>
        </mxCell>
        <mxCell id="ibVxWfqwhjhwBaZOz1QT-53" value="传入" style="edgeLabel;html=1;align=center;verticalAlign=middle;resizable=0;points=[];" parent="ibVxWfqwhjhwBaZOz1QT-27" vertex="1" connectable="0">
          <mxGeometry x="-0.1885" y="1" relative="1" as="geometry">
            <mxPoint as="offset" />
          </mxGeometry>
        </mxCell>
        <mxCell id="ibVxWfqwhjhwBaZOz1QT-16" value="&lt;span style=&quot;text-align: left;&quot;&gt;drm_plane_helper_funcs&lt;/span&gt;&lt;div&gt;&lt;span style=&quot;text-align: left;&quot;&gt;drm_plane_funcs&lt;/span&gt;&lt;span style=&quot;text-align: left;&quot;&gt;&lt;br&gt;&lt;/span&gt;&lt;/div&gt;" style="ellipse;whiteSpace=wrap;html=1;" parent="1" vertex="1">
          <mxGeometry x="-30" y="230" width="240" height="90" as="geometry" />
        </mxCell>
        <mxCell id="ibVxWfqwhjhwBaZOz1QT-45" style="edgeStyle=orthogonalEdgeStyle;rounded=0;orthogonalLoop=1;jettySize=auto;html=1;entryX=0;entryY=0.5;entryDx=0;entryDy=0;" parent="1" source="ibVxWfqwhjhwBaZOz1QT-18" target="ibVxWfqwhjhwBaZOz1QT-10" edge="1">
          <mxGeometry relative="1" as="geometry" />
        </mxCell>
        <mxCell id="ibVxWfqwhjhwBaZOz1QT-52" value="传入" style="edgeLabel;html=1;align=center;verticalAlign=middle;resizable=0;points=[];" parent="ibVxWfqwhjhwBaZOz1QT-45" vertex="1" connectable="0">
          <mxGeometry x="-0.2184" relative="1" as="geometry">
            <mxPoint as="offset" />
          </mxGeometry>
        </mxCell>
        <mxCell id="ibVxWfqwhjhwBaZOz1QT-18" value="&lt;div&gt;drm_crtc_helper_funcs&lt;/div&gt;drm_crtc_funcs" style="ellipse;whiteSpace=wrap;html=1;" parent="1" vertex="1">
          <mxGeometry x="-10" y="335" width="200" height="80" as="geometry" />
        </mxCell>
        <mxCell id="ibVxWfqwhjhwBaZOz1QT-35" value="" style="edgeStyle=orthogonalEdgeStyle;rounded=0;orthogonalLoop=1;jettySize=auto;html=1;" parent="1" source="ibVxWfqwhjhwBaZOz1QT-19" target="ibVxWfqwhjhwBaZOz1QT-6" edge="1">
          <mxGeometry relative="1" as="geometry" />
        </mxCell>
        <mxCell id="ibVxWfqwhjhwBaZOz1QT-76" style="edgeStyle=orthogonalEdgeStyle;rounded=0;orthogonalLoop=1;jettySize=auto;html=1;exitX=0.5;exitY=1;exitDx=0;exitDy=0;entryX=0.5;entryY=0;entryDx=0;entryDy=0;" parent="1" source="ibVxWfqwhjhwBaZOz1QT-19" target="ibVxWfqwhjhwBaZOz1QT-10" edge="1">
          <mxGeometry relative="1" as="geometry" />
        </mxCell>
        <mxCell id="ibVxWfqwhjhwBaZOz1QT-19" value="drm_plane_helper_add()" style="text;whiteSpace=wrap;html=1;" parent="1" vertex="1">
          <mxGeometry x="325" y="260" width="140" height="30" as="geometry" />
        </mxCell>
        <mxCell id="ibVxWfqwhjhwBaZOz1QT-65" style="edgeStyle=orthogonalEdgeStyle;rounded=0;orthogonalLoop=1;jettySize=auto;html=1;exitX=0.5;exitY=1;exitDx=0;exitDy=0;entryX=0.5;entryY=0;entryDx=0;entryDy=0;" parent="1" source="ibVxWfqwhjhwBaZOz1QT-29" target="ibVxWfqwhjhwBaZOz1QT-64" edge="1">
          <mxGeometry relative="1" as="geometry" />
        </mxCell>
        <mxCell id="ibVxWfqwhjhwBaZOz1QT-29" value="drm_encoder_init()" style="text;whiteSpace=wrap;html=1;" parent="1" vertex="1">
          <mxGeometry x="335" y="430" width="120" height="30" as="geometry" />
        </mxCell>
        <mxCell id="ibVxWfqwhjhwBaZOz1QT-44" value="" style="endArrow=classic;html=1;rounded=0;exitX=1;exitY=0.5;exitDx=0;exitDy=0;entryX=0;entryY=0.5;entryDx=0;entryDy=0;" parent="1" source="ibVxWfqwhjhwBaZOz1QT-10" target="ibVxWfqwhjhwBaZOz1QT-11" edge="1">
          <mxGeometry width="50" height="50" relative="1" as="geometry">
            <mxPoint x="390" y="370" as="sourcePoint" />
            <mxPoint x="440" y="320" as="targetPoint" />
          </mxGeometry>
        </mxCell>
        <mxCell id="ibVxWfqwhjhwBaZOz1QT-54" value="msxfb初始化流程：" style="text;html=1;align=center;verticalAlign=middle;resizable=0;points=[];autosize=1;strokeColor=none;fillColor=none;" parent="1" vertex="1">
          <mxGeometry x="-140" width="130" height="30" as="geometry" />
        </mxCell>
        <mxCell id="ibVxWfqwhjhwBaZOz1QT-68" style="edgeStyle=orthogonalEdgeStyle;rounded=0;orthogonalLoop=1;jettySize=auto;html=1;exitX=0.5;exitY=1;exitDx=0;exitDy=0;entryX=0.5;entryY=0;entryDx=0;entryDy=0;" parent="1" source="ibVxWfqwhjhwBaZOz1QT-64" target="ibVxWfqwhjhwBaZOz1QT-67" edge="1">
          <mxGeometry relative="1" as="geometry" />
        </mxCell>
        <mxCell id="ibVxWfqwhjhwBaZOz1QT-72" style="edgeStyle=orthogonalEdgeStyle;rounded=0;orthogonalLoop=1;jettySize=auto;html=1;exitX=1;exitY=0.5;exitDx=0;exitDy=0;entryX=0;entryY=0.5;entryDx=0;entryDy=0;" parent="1" source="ibVxWfqwhjhwBaZOz1QT-64" target="ibVxWfqwhjhwBaZOz1QT-71" edge="1">
          <mxGeometry relative="1" as="geometry" />
        </mxCell>
        <mxCell id="ibVxWfqwhjhwBaZOz1QT-64" value="&lt;span style=&quot;text-align: left; text-wrap: nowrap;&quot;&gt;drm_vblank_init()&lt;/span&gt;" style="text;html=1;align=center;verticalAlign=middle;whiteSpace=wrap;rounded=0;" parent="1" vertex="1">
          <mxGeometry x="345" y="480" width="100" height="30" as="geometry" />
        </mxCell>
        <mxCell id="ibVxWfqwhjhwBaZOz1QT-70" style="edgeStyle=orthogonalEdgeStyle;rounded=0;orthogonalLoop=1;jettySize=auto;html=1;exitX=0.5;exitY=1;exitDx=0;exitDy=0;entryX=0.5;entryY=0;entryDx=0;entryDy=0;" parent="1" source="ibVxWfqwhjhwBaZOz1QT-67" target="ibVxWfqwhjhwBaZOz1QT-69" edge="1">
          <mxGeometry relative="1" as="geometry" />
        </mxCell>
        <mxCell id="4WPVi9DUx6otet32KMRF-2" style="edgeStyle=orthogonalEdgeStyle;rounded=0;orthogonalLoop=1;jettySize=auto;html=1;exitX=1;exitY=0.5;exitDx=0;exitDy=0;entryX=0;entryY=0.5;entryDx=0;entryDy=0;" parent="1" source="ibVxWfqwhjhwBaZOz1QT-67" target="4WPVi9DUx6otet32KMRF-1" edge="1">
          <mxGeometry relative="1" as="geometry" />
        </mxCell>
        <mxCell id="4WPVi9DUx6otet32KMRF-24" style="edgeStyle=orthogonalEdgeStyle;rounded=0;orthogonalLoop=1;jettySize=auto;html=1;exitX=1;exitY=0.5;exitDx=0;exitDy=0;entryX=0;entryY=0.5;entryDx=0;entryDy=0;" parent="1" source="ibVxWfqwhjhwBaZOz1QT-67" target="4WPVi9DUx6otet32KMRF-23" edge="1">
          <mxGeometry relative="1" as="geometry">
            <Array as="points">
              <mxPoint x="470" y="575" />
              <mxPoint x="470" y="535" />
            </Array>
          </mxGeometry>
        </mxCell>
        <mxCell id="ibVxWfqwhjhwBaZOz1QT-67" value="&lt;span style=&quot;text-wrap: nowrap;&quot;&gt;mxsfb_attach_bridge()&lt;/span&gt;" style="text;html=1;align=center;verticalAlign=middle;whiteSpace=wrap;rounded=0;" parent="1" vertex="1">
          <mxGeometry x="325" y="560" width="140" height="30" as="geometry" />
        </mxCell>
        <mxCell id="gNZtOSXj_Tz5B8SrZ73U-4" style="edgeStyle=orthogonalEdgeStyle;rounded=0;orthogonalLoop=1;jettySize=auto;html=1;exitX=0.5;exitY=1;exitDx=0;exitDy=0;entryX=0.5;entryY=0;entryDx=0;entryDy=0;" parent="1" source="ibVxWfqwhjhwBaZOz1QT-69" target="ibVxWfqwhjhwBaZOz1QT-77" edge="1">
          <mxGeometry relative="1" as="geometry" />
        </mxCell>
        <mxCell id="ibVxWfqwhjhwBaZOz1QT-69" value="drm_mode_config_reset()" style="text;html=1;align=center;verticalAlign=middle;whiteSpace=wrap;rounded=0;" parent="1" vertex="1">
          <mxGeometry x="342.5" y="610" width="105" height="30" as="geometry" />
        </mxCell>
        <mxCell id="ibVxWfqwhjhwBaZOz1QT-71" value="drm_crtc_vblank_off()" style="text;whiteSpace=wrap;html=1;align=center;verticalAlign=middle;" parent="1" vertex="1">
          <mxGeometry x="490" y="480" width="120" height="30" as="geometry" />
        </mxCell>
        <mxCell id="ibVxWfqwhjhwBaZOz1QT-77" value="drm_kms_helper_poll_init()" style="text;whiteSpace=wrap;html=1;align=center;verticalAlign=middle;" parent="1" vertex="1">
          <mxGeometry x="320" y="670" width="150" height="30" as="geometry" />
        </mxCell>
        <mxCell id="ibVxWfqwhjhwBaZOz1QT-79" style="edgeStyle=orthogonalEdgeStyle;rounded=0;orthogonalLoop=1;jettySize=auto;html=1;" parent="1" source="ibVxWfqwhjhwBaZOz1QT-78" target="ibVxWfqwhjhwBaZOz1QT-1" edge="1">
          <mxGeometry relative="1" as="geometry" />
        </mxCell>
        <mxCell id="ibVxWfqwhjhwBaZOz1QT-80" value="传入" style="edgeLabel;html=1;align=center;verticalAlign=middle;resizable=0;points=[];" parent="ibVxWfqwhjhwBaZOz1QT-79" vertex="1" connectable="0">
          <mxGeometry x="-0.0556" y="-2" relative="1" as="geometry">
            <mxPoint as="offset" />
          </mxGeometry>
        </mxCell>
        <mxCell id="ibVxWfqwhjhwBaZOz1QT-78" value="drm_driver" style="ellipse;whiteSpace=wrap;html=1;" parent="1" vertex="1">
          <mxGeometry x="-10" y="40" width="200" height="80" as="geometry" />
        </mxCell>
        <mxCell id="ibVxWfqwhjhwBaZOz1QT-81" value="drm_mode_config_funcs&lt;div&gt;drm_mode_config_helper_funcs&lt;/div&gt;" style="ellipse;whiteSpace=wrap;html=1;" parent="1" vertex="1">
          <mxGeometry x="-20" y="140" width="220" height="80" as="geometry" />
        </mxCell>
        <mxCell id="ibVxWfqwhjhwBaZOz1QT-82" value="mode_config.funcs =&amp;nbsp;&lt;div&gt;mode_config.helper_private =&amp;nbsp;&lt;/div&gt;" style="text;html=1;align=center;verticalAlign=middle;resizable=0;points=[];autosize=1;strokeColor=none;fillColor=none;" parent="1" vertex="1">
          <mxGeometry x="510" y="120" width="190" height="40" as="geometry" />
        </mxCell>
        <mxCell id="ibVxWfqwhjhwBaZOz1QT-85" style="edgeStyle=orthogonalEdgeStyle;rounded=0;orthogonalLoop=1;jettySize=auto;html=1;exitX=1;exitY=0.5;exitDx=0;exitDy=0;entryX=0.492;entryY=1.002;entryDx=0;entryDy=0;entryPerimeter=0;" parent="1" source="ibVxWfqwhjhwBaZOz1QT-81" target="ibVxWfqwhjhwBaZOz1QT-82" edge="1">
          <mxGeometry relative="1" as="geometry" />
        </mxCell>
        <mxCell id="ibVxWfqwhjhwBaZOz1QT-87" value="全局变量" style="text;html=1;align=center;verticalAlign=middle;resizable=0;points=[];autosize=1;strokeColor=none;fillColor=none;" parent="1" vertex="1">
          <mxGeometry x="55" width="70" height="30" as="geometry" />
        </mxCell>
        <mxCell id="4WPVi9DUx6otet32KMRF-4" style="edgeStyle=orthogonalEdgeStyle;rounded=0;orthogonalLoop=1;jettySize=auto;html=1;exitX=1;exitY=0.5;exitDx=0;exitDy=0;entryX=0;entryY=0.5;entryDx=0;entryDy=0;" parent="1" source="4WPVi9DUx6otet32KMRF-1" target="4WPVi9DUx6otet32KMRF-3" edge="1">
          <mxGeometry relative="1" as="geometry" />
        </mxCell>
        <mxCell id="4WPVi9DUx6otet32KMRF-1" value="drm_bridge_attach()" style="text;whiteSpace=wrap;html=1;align=center;verticalAlign=middle;" parent="1" vertex="1">
          <mxGeometry x="490" y="560" width="120" height="30" as="geometry" />
        </mxCell>
        <mxCell id="4WPVi9DUx6otet32KMRF-9" style="edgeStyle=orthogonalEdgeStyle;rounded=0;orthogonalLoop=1;jettySize=auto;html=1;exitX=0.5;exitY=1;exitDx=0;exitDy=0;entryX=0.5;entryY=0;entryDx=0;entryDy=0;" parent="1" source="4WPVi9DUx6otet32KMRF-3" target="4WPVi9DUx6otet32KMRF-8" edge="1">
          <mxGeometry relative="1" as="geometry" />
        </mxCell>
        <mxCell id="4WPVi9DUx6otet32KMRF-3" value="&lt;font color=&quot;#ff3333&quot;&gt;bridge-&amp;gt;funcs-&amp;gt;attach&lt;/font&gt;" style="text;whiteSpace=wrap;html=1;align=center;verticalAlign=middle;" parent="1" vertex="1">
          <mxGeometry x="630" y="560" width="120" height="30" as="geometry" />
        </mxCell>
        <mxCell id="4WPVi9DUx6otet32KMRF-12" style="edgeStyle=orthogonalEdgeStyle;rounded=0;orthogonalLoop=1;jettySize=auto;html=1;exitX=1;exitY=0.5;exitDx=0;exitDy=0;" parent="1" source="4WPVi9DUx6otet32KMRF-5" target="4WPVi9DUx6otet32KMRF-6" edge="1">
          <mxGeometry relative="1" as="geometry" />
        </mxCell>
        <mxCell id="gNZtOSXj_Tz5B8SrZ73U-2" style="edgeStyle=orthogonalEdgeStyle;rounded=0;orthogonalLoop=1;jettySize=auto;html=1;exitX=0.5;exitY=1;exitDx=0;exitDy=0;entryX=0.5;entryY=0;entryDx=0;entryDy=0;" parent="1" source="4WPVi9DUx6otet32KMRF-5" target="gNZtOSXj_Tz5B8SrZ73U-1" edge="1">
          <mxGeometry relative="1" as="geometry" />
        </mxCell>
        <mxCell id="4WPVi9DUx6otet32KMRF-5" value="&lt;font&gt;drm_connector_helper_add&lt;/font&gt;" style="text;whiteSpace=wrap;html=1;align=center;verticalAlign=middle;fontColor=#000000;" parent="1" vertex="1">
          <mxGeometry x="615" y="640" width="150" height="30" as="geometry" />
        </mxCell>
        <mxCell id="4WPVi9DUx6otet32KMRF-6" value="drm_connector_init" style="text;whiteSpace=wrap;html=1;align=center;verticalAlign=middle;" parent="1" vertex="1">
          <mxGeometry x="785" y="640" width="110" height="30" as="geometry" />
        </mxCell>
        <mxCell id="gNZtOSXj_Tz5B8SrZ73U-3" style="edgeStyle=orthogonalEdgeStyle;rounded=0;orthogonalLoop=1;jettySize=auto;html=1;exitX=1;exitY=0.5;exitDx=0;exitDy=0;entryX=0;entryY=0.5;entryDx=0;entryDy=0;" parent="1" source="4WPVi9DUx6otet32KMRF-7" target="4WPVi9DUx6otet32KMRF-5" edge="1">
          <mxGeometry relative="1" as="geometry" />
        </mxCell>
        <mxCell id="4WPVi9DUx6otet32KMRF-7" value="&lt;div&gt;drm_connector_helper_funcs&lt;/div&gt;drm_connector_funcs" style="ellipse;whiteSpace=wrap;html=1;" parent="1" vertex="1">
          <mxGeometry x="-10" y="615" width="200" height="80" as="geometry" />
        </mxCell>
        <mxCell id="4WPVi9DUx6otet32KMRF-11" style="edgeStyle=orthogonalEdgeStyle;rounded=0;orthogonalLoop=1;jettySize=auto;html=1;exitX=0.5;exitY=1;exitDx=0;exitDy=0;entryX=0.5;entryY=0;entryDx=0;entryDy=0;" parent="1" source="4WPVi9DUx6otet32KMRF-8" target="4WPVi9DUx6otet32KMRF-5" edge="1">
          <mxGeometry relative="1" as="geometry" />
        </mxCell>
        <mxCell id="4WPVi9DUx6otet32KMRF-8" value="panel_bridge_attach" style="text;whiteSpace=wrap;html=1;align=center;verticalAlign=middle;fontColor=#000000;" parent="1" vertex="1">
          <mxGeometry x="615" y="600" width="150" height="30" as="geometry" />
        </mxCell>
        <mxCell id="4WPVi9DUx6otet32KMRF-16" value="panel.c" style="text;html=1;align=center;verticalAlign=middle;resizable=0;points=[];autosize=1;strokeColor=none;fillColor=none;" parent="1" vertex="1">
          <mxGeometry x="-75" y="640" width="60" height="30" as="geometry" />
        </mxCell>
        <mxCell id="4WPVi9DUx6otet32KMRF-26" style="edgeStyle=orthogonalEdgeStyle;rounded=0;orthogonalLoop=1;jettySize=auto;html=1;exitX=1;exitY=0.5;exitDx=0;exitDy=0;entryX=0;entryY=0.5;entryDx=0;entryDy=0;" parent="1" source="4WPVi9DUx6otet32KMRF-23" target="4WPVi9DUx6otet32KMRF-25" edge="1">
          <mxGeometry relative="1" as="geometry" />
        </mxCell>
        <mxCell id="4WPVi9DUx6otet32KMRF-23" value="devm_drm_panel_bridge_add_typed()" style="text;whiteSpace=wrap;html=1;align=center;verticalAlign=middle;" parent="1" vertex="1">
          <mxGeometry x="490" y="520" width="210" height="30" as="geometry" />
        </mxCell>
        <mxCell id="4WPVi9DUx6otet32KMRF-25" value="drm_panel_bridge_add_typed()" style="text;whiteSpace=wrap;html=1;" parent="1" vertex="1">
          <mxGeometry x="725" y="520" width="170" height="30" as="geometry" />
        </mxCell>
        <mxCell id="4WPVi9DUx6otet32KMRF-28" style="edgeStyle=orthogonalEdgeStyle;rounded=0;orthogonalLoop=1;jettySize=auto;html=1;exitX=1;exitY=0.5;exitDx=0;exitDy=0;entryX=0.5;entryY=0;entryDx=0;entryDy=0;" parent="1" source="4WPVi9DUx6otet32KMRF-27" target="4WPVi9DUx6otet32KMRF-25" edge="1">
          <mxGeometry relative="1" as="geometry">
            <Array as="points">
              <mxPoint x="210" y="545" />
              <mxPoint x="210" y="510" />
              <mxPoint x="810" y="510" />
            </Array>
          </mxGeometry>
        </mxCell>
        <mxCell id="4WPVi9DUx6otet32KMRF-29" value="传入panel_bridge-&amp;gt;funcs" style="edgeLabel;html=1;align=center;verticalAlign=middle;resizable=0;points=[];" parent="4WPVi9DUx6otet32KMRF-28" vertex="1" connectable="0">
          <mxGeometry x="-0.3575" y="4" relative="1" as="geometry">
            <mxPoint x="-68" y="4" as="offset" />
          </mxGeometry>
        </mxCell>
        <mxCell id="4WPVi9DUx6otet32KMRF-27" value="drm_panel_funcs&lt;div&gt;&lt;/div&gt;" style="ellipse;whiteSpace=wrap;html=1;" parent="1" vertex="1">
          <mxGeometry x="5" y="505" width="170" height="80" as="geometry" />
        </mxCell>
        <mxCell id="4WPVi9DUx6otet32KMRF-30" value="panel-simple.c" style="text;html=1;align=center;verticalAlign=middle;resizable=0;points=[];autosize=1;strokeColor=none;fillColor=none;" parent="1" vertex="1">
          <mxGeometry x="-95" y="530" width="100" height="30" as="geometry" />
        </mxCell>
        <mxCell id="4WPVi9DUx6otet32KMRF-31" value="&lt;font color=&quot;#b3b3b3&quot; style=&quot;font-size: 11px;&quot;&gt;在crtc_funcs-&amp;gt;atomic_enable中再调用vblank_on&lt;/font&gt;" style="text;html=1;align=center;verticalAlign=middle;resizable=0;points=[];autosize=1;strokeColor=none;fillColor=none;" parent="1" vertex="1">
          <mxGeometry x="440" y="450" width="260" height="30" as="geometry" />
        </mxCell>
        <mxCell id="gNZtOSXj_Tz5B8SrZ73U-1" value="drm_connector_attach_encoder" style="text;whiteSpace=wrap;html=1;align=center;verticalAlign=middle;" parent="1" vertex="1">
          <mxGeometry x="600" y="680" width="180" height="30" as="geometry" />
        </mxCell>
        <mxCell id="w7sHPAAPbF3zRU9skoth-3" style="edgeStyle=orthogonalEdgeStyle;rounded=0;orthogonalLoop=1;jettySize=auto;html=1;exitX=1;exitY=0.5;exitDx=0;exitDy=0;entryX=0;entryY=0.5;entryDx=0;entryDy=0;" parent="1" source="w7sHPAAPbF3zRU9skoth-2" target="ibVxWfqwhjhwBaZOz1QT-29" edge="1">
          <mxGeometry relative="1" as="geometry" />
        </mxCell>
        <mxCell id="w7sHPAAPbF3zRU9skoth-2" value="drm_encoder_funcs&lt;div&gt;&lt;/div&gt;" style="ellipse;whiteSpace=wrap;html=1;" parent="1" vertex="1">
          <mxGeometry x="5" y="420" width="170" height="80" as="geometry" />
        </mxCell>
        <mxCell id="knjZX8rODNIXgM0DmbkH-1" value="&lt;font color=&quot;#999999&quot; style=&quot;font-size: 10px;&quot;&gt;vkms_drv.c:&lt;/font&gt;" style="text;html=1;align=center;verticalAlign=middle;whiteSpace=wrap;rounded=0;" parent="1" vertex="1">
          <mxGeometry x="-10" y="780" width="60" height="30" as="geometry" />
        </mxCell>
        <mxCell id="knjZX8rODNIXgM0DmbkH-6" style="edgeStyle=orthogonalEdgeStyle;rounded=0;orthogonalLoop=1;jettySize=auto;html=1;exitX=0.5;exitY=1;exitDx=0;exitDy=0;entryX=0.5;entryY=0;entryDx=0;entryDy=0;" parent="1" source="knjZX8rODNIXgM0DmbkH-2" target="knjZX8rODNIXgM0DmbkH-3" edge="1">
          <mxGeometry relative="1" as="geometry" />
        </mxCell>
        <mxCell id="knjZX8rODNIXgM0DmbkH-2" value="vkms_create" style="text;whiteSpace=wrap;html=1;" parent="1" vertex="1">
          <mxGeometry x="55" y="810" width="80" height="30" as="geometry" />
        </mxCell>
        <mxCell id="knjZX8rODNIXgM0DmbkH-7" style="edgeStyle=orthogonalEdgeStyle;rounded=0;orthogonalLoop=1;jettySize=auto;html=1;exitX=0.5;exitY=1;exitDx=0;exitDy=0;entryX=0.5;entryY=0;entryDx=0;entryDy=0;" parent="1" source="knjZX8rODNIXgM0DmbkH-3" target="knjZX8rODNIXgM0DmbkH-4" edge="1">
          <mxGeometry relative="1" as="geometry" />
        </mxCell>
        <mxCell id="knjZX8rODNIXgM0DmbkH-3" value="devm_drm_dev_alloc" style="text;whiteSpace=wrap;html=1;" parent="1" vertex="1">
          <mxGeometry x="35" y="860" width="120" height="30" as="geometry" />
        </mxCell>
        <mxCell id="knjZX8rODNIXgM0DmbkH-9" style="edgeStyle=orthogonalEdgeStyle;rounded=0;orthogonalLoop=1;jettySize=auto;html=1;exitX=0.5;exitY=1;exitDx=0;exitDy=0;entryX=0.5;entryY=0;entryDx=0;entryDy=0;" parent="1" source="knjZX8rODNIXgM0DmbkH-4" target="knjZX8rODNIXgM0DmbkH-5" edge="1">
          <mxGeometry relative="1" as="geometry" />
        </mxCell>
        <mxCell id="knjZX8rODNIXgM0DmbkH-4" value="drm_vblank_init" style="text;whiteSpace=wrap;html=1;" parent="1" vertex="1">
          <mxGeometry x="50" y="920" width="90" height="30" as="geometry" />
        </mxCell>
        <mxCell id="knjZX8rODNIXgM0DmbkH-13" style="edgeStyle=orthogonalEdgeStyle;rounded=0;orthogonalLoop=1;jettySize=auto;html=1;exitX=0.5;exitY=1;exitDx=0;exitDy=0;entryX=0.5;entryY=0;entryDx=0;entryDy=0;" parent="1" source="knjZX8rODNIXgM0DmbkH-5" target="knjZX8rODNIXgM0DmbkH-10" edge="1">
          <mxGeometry relative="1" as="geometry" />
        </mxCell>
        <mxCell id="knjZX8rODNIXgM0DmbkH-16" style="edgeStyle=orthogonalEdgeStyle;rounded=0;orthogonalLoop=1;jettySize=auto;html=1;exitX=1;exitY=0.5;exitDx=0;exitDy=0;entryX=0;entryY=0.5;entryDx=0;entryDy=0;" parent="1" source="knjZX8rODNIXgM0DmbkH-5" target="knjZX8rODNIXgM0DmbkH-15" edge="1">
          <mxGeometry relative="1" as="geometry" />
        </mxCell>
        <mxCell id="knjZX8rODNIXgM0DmbkH-18" style="edgeStyle=orthogonalEdgeStyle;rounded=0;orthogonalLoop=1;jettySize=auto;html=1;exitX=1;exitY=0.5;exitDx=0;exitDy=0;entryX=0;entryY=0.5;entryDx=0;entryDy=0;" parent="1" source="knjZX8rODNIXgM0DmbkH-5" target="knjZX8rODNIXgM0DmbkH-17" edge="1">
          <mxGeometry relative="1" as="geometry" />
        </mxCell>
        <mxCell id="knjZX8rODNIXgM0DmbkH-5" value="vkms_modeset_init" style="text;whiteSpace=wrap;html=1;" parent="1" vertex="1">
          <mxGeometry x="37.5" y="1070" width="115" height="30" as="geometry" />
        </mxCell>
        <mxCell id="knjZX8rODNIXgM0DmbkH-14" style="edgeStyle=orthogonalEdgeStyle;rounded=0;orthogonalLoop=1;jettySize=auto;html=1;exitX=0.5;exitY=1;exitDx=0;exitDy=0;entryX=0.5;entryY=0;entryDx=0;entryDy=0;" parent="1" source="knjZX8rODNIXgM0DmbkH-10" target="knjZX8rODNIXgM0DmbkH-12" edge="1">
          <mxGeometry relative="1" as="geometry" />
        </mxCell>
        <mxCell id="knjZX8rODNIXgM0DmbkH-10" value="drm_dev_register" style="text;whiteSpace=wrap;html=1;" parent="1" vertex="1">
          <mxGeometry x="45" y="1210" width="100" height="30" as="geometry" />
        </mxCell>
        <mxCell id="knjZX8rODNIXgM0DmbkH-12" value="drm_fbdev_generic_setup" style="text;whiteSpace=wrap;html=1;" parent="1" vertex="1">
          <mxGeometry x="20" y="1260" width="150" height="30" as="geometry" />
        </mxCell>
        <mxCell id="knjZX8rODNIXgM0DmbkH-15" value="drmm_mode_config_init" style="text;whiteSpace=wrap;html=1;" parent="1" vertex="1">
          <mxGeometry x="200" y="970" width="140" height="30" as="geometry" />
        </mxCell>
        <mxCell id="knjZX8rODNIXgM0DmbkH-21" style="edgeStyle=orthogonalEdgeStyle;rounded=0;orthogonalLoop=1;jettySize=auto;html=1;exitX=1;exitY=0.5;exitDx=0;exitDy=0;entryX=0;entryY=0.5;entryDx=0;entryDy=0;" parent="1" source="knjZX8rODNIXgM0DmbkH-17" target="knjZX8rODNIXgM0DmbkH-20" edge="1">
          <mxGeometry relative="1" as="geometry" />
        </mxCell>
        <mxCell id="knjZX8rODNIXgM0DmbkH-25" style="edgeStyle=orthogonalEdgeStyle;rounded=0;orthogonalLoop=1;jettySize=auto;html=1;exitX=1;exitY=0.5;exitDx=0;exitDy=0;entryX=0;entryY=0.5;entryDx=0;entryDy=0;" parent="1" source="knjZX8rODNIXgM0DmbkH-17" target="knjZX8rODNIXgM0DmbkH-24" edge="1">
          <mxGeometry relative="1" as="geometry" />
        </mxCell>
        <mxCell id="knjZX8rODNIXgM0DmbkH-26" style="edgeStyle=orthogonalEdgeStyle;rounded=0;orthogonalLoop=1;jettySize=auto;html=1;exitX=1;exitY=0.5;exitDx=0;exitDy=0;entryX=0;entryY=0.5;entryDx=0;entryDy=0;" parent="1" source="knjZX8rODNIXgM0DmbkH-17" target="knjZX8rODNIXgM0DmbkH-23" edge="1">
          <mxGeometry relative="1" as="geometry" />
        </mxCell>
        <mxCell id="knjZX8rODNIXgM0DmbkH-28" style="edgeStyle=orthogonalEdgeStyle;rounded=0;orthogonalLoop=1;jettySize=auto;html=1;exitX=1;exitY=0.5;exitDx=0;exitDy=0;entryX=0;entryY=0.5;entryDx=0;entryDy=0;" parent="1" source="knjZX8rODNIXgM0DmbkH-17" target="knjZX8rODNIXgM0DmbkH-27" edge="1">
          <mxGeometry relative="1" as="geometry" />
        </mxCell>
        <mxCell id="knjZX8rODNIXgM0DmbkH-32" style="edgeStyle=orthogonalEdgeStyle;rounded=0;orthogonalLoop=1;jettySize=auto;html=1;exitX=1;exitY=0.5;exitDx=0;exitDy=0;entryX=0;entryY=0.5;entryDx=0;entryDy=0;" parent="1" source="knjZX8rODNIXgM0DmbkH-17" target="knjZX8rODNIXgM0DmbkH-29" edge="1">
          <mxGeometry relative="1" as="geometry" />
        </mxCell>
        <mxCell id="knjZX8rODNIXgM0DmbkH-33" style="edgeStyle=orthogonalEdgeStyle;rounded=0;orthogonalLoop=1;jettySize=auto;html=1;exitX=1;exitY=0.5;exitDx=0;exitDy=0;entryX=0;entryY=0.5;entryDx=0;entryDy=0;" parent="1" source="knjZX8rODNIXgM0DmbkH-17" target="knjZX8rODNIXgM0DmbkH-30" edge="1">
          <mxGeometry relative="1" as="geometry" />
        </mxCell>
        <mxCell id="knjZX8rODNIXgM0DmbkH-17" value="vkms_output_init" style="text;whiteSpace=wrap;html=1;" parent="1" vertex="1">
          <mxGeometry x="200" y="1120" width="100" height="30" as="geometry" />
        </mxCell>
        <mxCell id="knjZX8rODNIXgM0DmbkH-19" value="&lt;font color=&quot;#999999&quot; style=&quot;font-size: 10px;&quot;&gt;vkms_output.c&lt;/font&gt;" style="text;html=1;align=center;verticalAlign=middle;whiteSpace=wrap;rounded=0;" parent="1" vertex="1">
          <mxGeometry x="194" y="1100" width="106" height="20" as="geometry" />
        </mxCell>
        <mxCell id="knjZX8rODNIXgM0DmbkH-41" style="edgeStyle=orthogonalEdgeStyle;rounded=0;orthogonalLoop=1;jettySize=auto;html=1;exitX=1;exitY=0.5;exitDx=0;exitDy=0;entryX=0;entryY=0.5;entryDx=0;entryDy=0;" parent="1" source="knjZX8rODNIXgM0DmbkH-20" target="knjZX8rODNIXgM0DmbkH-40" edge="1">
          <mxGeometry relative="1" as="geometry" />
        </mxCell>
        <mxCell id="knjZX8rODNIXgM0DmbkH-20" value="vkms_plane_init * 3(primary, overlay, cursor)" style="text;whiteSpace=wrap;html=1;" parent="1" vertex="1">
          <mxGeometry x="380" y="1000" width="240" height="30" as="geometry" />
        </mxCell>
        <mxCell id="knjZX8rODNIXgM0DmbkH-22" value="&lt;font color=&quot;#999999&quot; style=&quot;font-size: 10px;&quot;&gt;vkms_plane.c&lt;/font&gt;" style="text;whiteSpace=wrap;html=1;" parent="1" vertex="1">
          <mxGeometry x="380" y="980" width="80" height="20" as="geometry" />
        </mxCell>
        <mxCell id="knjZX8rODNIXgM0DmbkH-37" style="edgeStyle=orthogonalEdgeStyle;rounded=0;orthogonalLoop=1;jettySize=auto;html=1;exitX=1;exitY=0.5;exitDx=0;exitDy=0;entryX=0;entryY=0.5;entryDx=0;entryDy=0;" parent="1" source="knjZX8rODNIXgM0DmbkH-23" target="knjZX8rODNIXgM0DmbkH-34" edge="1">
          <mxGeometry relative="1" as="geometry" />
        </mxCell>
        <mxCell id="knjZX8rODNIXgM0DmbkH-38" style="edgeStyle=orthogonalEdgeStyle;rounded=0;orthogonalLoop=1;jettySize=auto;html=1;exitX=1;exitY=0.5;exitDx=0;exitDy=0;entryX=0;entryY=0.5;entryDx=0;entryDy=0;" parent="1" source="knjZX8rODNIXgM0DmbkH-23" target="knjZX8rODNIXgM0DmbkH-35" edge="1">
          <mxGeometry relative="1" as="geometry" />
        </mxCell>
        <mxCell id="knjZX8rODNIXgM0DmbkH-39" style="edgeStyle=orthogonalEdgeStyle;rounded=0;orthogonalLoop=1;jettySize=auto;html=1;exitX=1;exitY=0.5;exitDx=0;exitDy=0;entryX=0;entryY=0.5;entryDx=0;entryDy=0;" parent="1" source="knjZX8rODNIXgM0DmbkH-23" target="knjZX8rODNIXgM0DmbkH-36" edge="1">
          <mxGeometry relative="1" as="geometry" />
        </mxCell>
        <mxCell id="knjZX8rODNIXgM0DmbkH-23" value="vkms_crtc_init" style="text;whiteSpace=wrap;html=1;" parent="1" vertex="1">
          <mxGeometry x="380" y="1050" width="90" height="30" as="geometry" />
        </mxCell>
        <mxCell id="knjZX8rODNIXgM0DmbkH-24" value="drm_connector_init" style="text;whiteSpace=wrap;html=1;" parent="1" vertex="1">
          <mxGeometry x="380" y="1095" width="110" height="30" as="geometry" />
        </mxCell>
        <mxCell id="knjZX8rODNIXgM0DmbkH-27" value="drm_encoder_init" style="text;whiteSpace=wrap;html=1;" parent="1" vertex="1">
          <mxGeometry x="380" y="1140" width="105" height="30" as="geometry" />
        </mxCell>
        <mxCell id="knjZX8rODNIXgM0DmbkH-29" value="drm_connector_attach_encoder" style="text;whiteSpace=wrap;html=1;" parent="1" vertex="1">
          <mxGeometry x="380" y="1190" width="175" height="30" as="geometry" />
        </mxCell>
        <mxCell id="knjZX8rODNIXgM0DmbkH-43" style="edgeStyle=orthogonalEdgeStyle;rounded=0;orthogonalLoop=1;jettySize=auto;html=1;exitX=1;exitY=0.5;exitDx=0;exitDy=0;entryX=0;entryY=0.5;entryDx=0;entryDy=0;" parent="1" source="knjZX8rODNIXgM0DmbkH-30" target="knjZX8rODNIXgM0DmbkH-42" edge="1">
          <mxGeometry relative="1" as="geometry" />
        </mxCell>
        <mxCell id="knjZX8rODNIXgM0DmbkH-30" value="vkms_enable_writeback_connector" style="text;whiteSpace=wrap;html=1;" parent="1" vertex="1">
          <mxGeometry x="380" y="1240" width="200" height="31" as="geometry" />
        </mxCell>
        <mxCell id="knjZX8rODNIXgM0DmbkH-31" value="&lt;font color=&quot;#999999&quot; style=&quot;font-size: 10px;&quot;&gt;vkms_crtc.c&lt;/font&gt;" style="text;whiteSpace=wrap;html=1;" parent="1" vertex="1">
          <mxGeometry x="380" y="1030" width="80" height="20" as="geometry" />
        </mxCell>
        <mxCell id="knjZX8rODNIXgM0DmbkH-34" value="drmm_crtc_init_with_planes" style="text;whiteSpace=wrap;html=1;" parent="1" vertex="1">
          <mxGeometry x="560" y="1030" width="160" height="30" as="geometry" />
        </mxCell>
        <mxCell id="knjZX8rODNIXgM0DmbkH-35" value="drm_mode_crtc_set_gamma_size" style="text;whiteSpace=wrap;html=1;" parent="1" vertex="1">
          <mxGeometry x="560" y="1052.5" width="190" height="25" as="geometry" />
        </mxCell>
        <mxCell id="knjZX8rODNIXgM0DmbkH-36" value="drm_crtc_enable_color_mgmt" style="text;whiteSpace=wrap;html=1;" parent="1" vertex="1">
          <mxGeometry x="560" y="1077.5" width="170" height="30" as="geometry" />
        </mxCell>
        <mxCell id="knjZX8rODNIXgM0DmbkH-40" value="drmm_universal_plane_alloc" style="text;whiteSpace=wrap;html=1;" parent="1" vertex="1">
          <mxGeometry x="650" y="1000" width="160" height="30" as="geometry" />
        </mxCell>
        <mxCell id="knjZX8rODNIXgM0DmbkH-42" value="drm_writeback_connector_init" style="text;whiteSpace=wrap;html=1;" parent="1" vertex="1">
          <mxGeometry x="610" y="1240" width="170" height="30" as="geometry" />
        </mxCell>
      </root>
    </mxGraphModel>
  </diagram>
</mxfile>
